<?xml version="1.0" standalone="no"?>
<!DOCTYPE svg PUBLIC "-//W3C//DTD SVG 1.1//EN" "http://www.w3.org/Graphics/SVG/1.1/DTD/svg11.dtd" >
<svg xmlns="http://www.w3.org/2000/svg">
<metadata>
This is a custom SVG webfont generated by Font Squirrel.
</metadata>
<defs>
<font id="webfontEVa9i15f" horiz-adv-x="500" >
<font-face units-per-em="1000" ascent="800" descent="-200" />
<missing-glyph horiz-adv-x="387" />
<glyph unicode=" "  horiz-adv-x="387" />
<glyph unicode="&#x09;" horiz-adv-x="387" />
<glyph unicode="&#xa0;" horiz-adv-x="387" />
<glyph unicode="!" horiz-adv-x="384" d="M151 210l-37 306h154l-37 -306h-80zM226 143h17q15 0 20 -7.5t5 -26.5v-75q0 -24 -7.5 -29t-34.5 -5h-88q-15 0 -20 7.5t-5 26.5v75q0 24 7.5 29t34.5 5h71z" />
<glyph unicode="&#x22;" horiz-adv-x="300" d="M112 701v-271h-68v271h68zM256 701v-271h-68v271h68z" />
<glyph unicode="#" horiz-adv-x="769" d="M451 712l-79 -222h125l80 222h80l-78 -222h147l-25 -71h-148l-45 -129h157l-25 -71h-157l-79 -221h-81l79 221h-126l-79 -221h-81l78 221h-151l26 71h151l45 129h-161l25 71h162l79 222h81zM473 419h-127l-45 -129h127z" />
<glyph unicode="$" horiz-adv-x="773" d="M572 442h-137v-137h112q74 0 101.5 -25t27.5 -97v-61q0 -72 -27.5 -97t-101.5 -25h-112v-130h-83v130h-127q-69 0 -98.5 23t-29.5 85v22l100 17v-69h155v137h-107q-74 0 -101 25t-27 97v57q0 72 27 97t101 25h107v102h83v-102h103q68 0 98 -22.5t30 -78.5v-23l-94 -21v71 zM352 305v137h-144v-137h144zM435 78h149v137h-149v-137z" />
<glyph unicode="%" horiz-adv-x="799" d="M44 380q0 64 44.5 108t109.5 44q64 0 108.5 -44t44.5 -108q0 -63 -45.5 -109t-107.5 -46t-108 46t-46 109zM112 378q0 -35 25 -60t60 -25q36 0 61 25t25 60t-25.5 60.5t-60.5 25.5q-34 0 -59.5 -25.5t-25.5 -60.5zM515 137q0 -35 25 -60t60 -25q36 0 61 25t25 60 t-25.5 60.5t-60.5 25.5q-34 0 -59.5 -25.5t-25.5 -60.5zM447 138q0 64 44.5 108.5t108.5 44.5t109 -44.5t45 -108.5q0 -63 -46 -108.5t-108 -45.5t-107.5 45.5t-45.5 108.5zM649 532l-435 -548h-65l435 548h65z" />
<glyph unicode="&#x26;" horiz-adv-x="824" d="M219 0q-74 0 -101.5 25t-27.5 97v34q0 37 13.5 55.5t50.5 40.5l105 63q-44 37 -44 78v29q0 54 29.5 74t98.5 20h104q72 0 100 -21.5t28 -82.5v-31l-93 -16v69h-169v-37l243 -202l120 100l68 -59l-119 -99l163 -137h-157l-85 72l-46 -41q-23 -20 -42 -25.5t-55 -5.5h-184z M191 90h239l48 41l-155 129l-132 -82v-88z" />
<glyph unicode="'" horiz-adv-x="155" d="M112 701v-271h-68v271h68z" />
<glyph unicode="(" horiz-adv-x="331" d="M169 536h107q-97 -145 -97 -278t97 -278h-107q-86 133 -86 278t86 278z" />
<glyph unicode=")" horiz-adv-x="331" d="M162 536q87 -135 87 -278t-87 -278h-107q97 145 97 278t-97 278h107z" />
<glyph unicode="*" d="M250 321l-66 -120l-59 43l94 100l-133 26l22 68l123 -59l-14 137h66l-15 -137l123 59l23 -68l-134 -26l94 -100l-58 -43z" />
<glyph unicode="+" horiz-adv-x="833" d="M451 596v-264h258v-68h-258v-264h-69v264h-258v68h258v264h69z" />
<glyph unicode="," horiz-adv-x="331" d="M201 155h17q14 0 19 -8.5t5 -28.5v-103l-99 -148h-59l85 152h-57q-14 0 -19 8.5t-5 28.5v62q0 26 7 31.5t34 5.5h72z" />
<glyph unicode="-" horiz-adv-x="330" d="M48 215v103h233v-103h-233z" />
<glyph unicode="." horiz-adv-x="331" d="M201 155h18q14 0 19 -8.5t5 -28.5v-81q0 -26 -7.5 -31.5t-34.5 -5.5h-89q-14 0 -19 8.5t-5 28.5v81q0 26 7 31.5t35 5.5h71z" />
<glyph unicode="/" horiz-adv-x="278" d="M-24 -16l260 548h66l-262 -548h-64z" />
<glyph unicode="0" horiz-adv-x="773" d="M94 394q0 71 25 96.5t93 25.5h349q68 0 93 -25.5t25 -96.5v-272q0 -71 -25 -96.5t-93 -25.5h-349q-68 0 -93 25.5t-25 96.5v272zM202 93h369v335h-369v-335z" />
<glyph unicode="1" horiz-adv-x="773" d="M354 0v418h-110v69l219 33v-520h-109z" />
<glyph unicode="2" horiz-adv-x="773" d="M140 415q0 60 25 80.5t93 20.5h265q68 0 93 -20.5t25 -80.5v-33q0 -42 -13.5 -61.5t-53.5 -43.5l-303 -184h300v76l95 -27v-41q0 -60 -25 -80.5t-93 -20.5h-434v47q0 30 11.5 49t53.5 45l357 220v67h-294v-106l-102 26v67z" />
<glyph unicode="3" horiz-adv-x="773" d="M228 0q-68 0 -93 20.5t-25 80.5v42l106 22v-72h278q30 0 40 9t10 37v38q0 28 -10 37.5t-40 9.5h-174v84h155q30 0 39.5 9.5t9.5 37.5v26q0 28 -9.5 37.5t-39.5 9.5h-255v-64l-102 19v32q0 60 25 80.5t93 20.5h279q68 0 93 -20.5t25 -80.5v-47q0 -46 -22 -67.5t-78 -30.5 q62 -6 91 -31t29 -74v-54q0 -62 -26 -86.5t-99 -24.5h-300z" />
<glyph unicode="4" horiz-adv-x="773" d="M472 200v231l-282 -231h282zM472 -6v120h-391v86l387 322h113v-322h125v-86h-125v-120h-109z" />
<glyph unicode="5" horiz-adv-x="773" d="M130 230l29 286h446l-9 -88h-360l-12 -100q128 13 209 13q256 0 256 -175q0 -92 -68.5 -132.5t-215.5 -40.5q-160 0 -249 21l-26 100q149 -27 272 -27q94 0 135 18.5t41 65.5q0 44 -40 62t-129 18q-118 0 -279 -21z" />
<glyph unicode="6" horiz-adv-x="773" d="M230 311q118 18 228 18q121 0 169.5 -28t48.5 -105v-70q0 -65 -43.5 -95.5t-133.5 -30.5h-218q-97 0 -133.5 33.5t-36.5 125.5v68q0 144 99.5 223t281.5 79q13 0 37 -2l71 -83h-33q-154 0 -231.5 -27.5t-105.5 -105.5zM223 233q-2 -12 -2 -30q0 -70 17.5 -90t89.5 -20 h144q55 0 74.5 13.5t19.5 48.5v28q0 38 -23.5 50t-90.5 12q-110 0 -229 -12z" />
<glyph unicode="7" horiz-adv-x="773" d="M278 -9l278 437h-341v-111l-109 19v180h573v-83l-270 -442h-131z" />
<glyph unicode="8" horiz-adv-x="773" d="M518 224h-264q-30 0 -39.5 -9.5t-9.5 -37.5v-38q0 -28 9.5 -37t39.5 -9h264q30 0 39.5 9t9.5 37v38q0 28 -9.5 37.5t-39.5 9.5zM507 428h-241q-30 0 -40 -9.5t-10 -37.5v-26q0 -28 10 -37.5t40 -9.5h241q30 0 39.5 9.5t9.5 37.5v26q0 28 -9.5 37.5t-39.5 9.5zM547 516 q68 0 93 -20.5t25 -80.5v-47q0 -45 -22 -67t-77 -33q111 -12 111 -103v-54q0 -61 -26.5 -86t-99.5 -25h-330q-73 0 -99 24.5t-26 86.5v54q0 91 110 103q-54 11 -76.5 33t-22.5 67v47q0 60 25 80.5t93 20.5h322z" />
<glyph unicode="9" horiz-adv-x="773" d="M559 284q3 18 3 31q0 72 -18 92.5t-90 20.5h-143q-55 0 -75 -14t-20 -50v-29q0 -39 24 -51.5t91 -12.5q99 0 228 13zM553 205q-111 -17 -228 -17q-121 0 -169.5 28t-48.5 105v69q0 65 43 95.5t133 30.5h218q97 0 133.5 -33.5t36.5 -125.5v-68q0 -144 -99.5 -222.5 t-281.5 -78.5q-25 0 -37 1l-71 83h33q154 0 232 27.5t106 105.5z" />
<glyph unicode=":" horiz-adv-x="331" d="M201 155h18q14 0 19 -8.5t5 -28.5v-81q0 -26 -7.5 -31.5t-34.5 -5.5h-89q-14 0 -19 8.5t-5 28.5v81q0 26 7 31.5t35 5.5h71zM201 424h18q14 0 19 -8.5t5 -28.5v-81q0 -26 -7.5 -31.5t-34.5 -5.5h-89q-14 0 -19 8.5t-5 28.5v81q0 26 7 31.5t35 5.5h71z" />
<glyph unicode=";" horiz-adv-x="331" d="M201 155h17q14 0 19 -8.5t5 -28.5v-103l-99 -148h-59l85 152h-57q-14 0 -19 8.5t-5 28.5v62q0 26 7 31.5t34 5.5h72zM201 424h17q14 0 19 -8.5t5 -28.5v-81q0 -26 -7 -31.5t-34 -5.5h-89q-14 0 -19 8.5t-5 28.5v81q0 26 7 31.5t34 5.5h72z" />
<glyph unicode="&#x3c;" horiz-adv-x="833" d="M704 491l-473 -193l473 -192v-75l-575 236v63l575 236v-75z" />
<glyph unicode="=" horiz-adv-x="833" d="M709 429v-68h-585v68h585zM709 235v-68h-585v68h585z" />
<glyph unicode="&#x3e;" horiz-adv-x="833" d="M704 330v-63l-575 -236v75l474 192l-474 193v75z" />
<glyph unicode="?" horiz-adv-x="662" d="M264 209v72l173 105v45h-230v-65l-101 16v28q0 106 108 106h204q124 0 124 -96v-82l-175 -102v-27h-103zM350 143h17q15 0 19.5 -7.5t4.5 -26.5v-75q0 -24 -7 -29t-34 -5h-88q-15 0 -20 7.5t-5 26.5v75q0 24 7 29t34 5h72z" />
<glyph unicode="@" horiz-adv-x="1000" d="M581 232l29 115q-8 43 -33.5 66.5t-63.5 23.5q-67 0 -113 -63.5t-46 -155.5q0 -52 23.5 -79.5t67.5 -27.5q47 0 85 33.5t51 87.5zM627 417l28 56h64l-71 -281q-4 -16 -4 -29q0 -46 49 -46t102 50q83 78 83 205q0 126 -92.5 205t-244.5 79q-129 0 -223 -56 q-93 -56 -144.5 -146.5t-51.5 -199.5q0 -168 124 -263q102 -78 256 -78q170 0 303 93l27 -40q-145 -109 -324 -109q-187 0 -307 91q-149 115 -149 307q0 164 99 284q145 177 394 177q166 0 275 -84q129 -100 129 -251q0 -174 -121 -269q-69 -55 -154 -55q-98 0 -98 77v9 q-53 -85 -147 -85q-74 0 -113.5 41.5t-39.5 120.5q0 115 67.5 192.5t165.5 77.5q83 0 118 -73z" />
<glyph unicode="A" horiz-adv-x="771" d="M33 0l292 516h116l296 -516h-135l-62 113h-327l-60 -113h-120zM264 206h226l-111 210z" />
<glyph unicode="B" horiz-adv-x="794" d="M132 0v516h442q60 0 88 -23.5t28 -76.5v-63q0 -76 -89 -87q45 -6 69 -32t24 -67v-66q0 -101 -152 -101h-410zM524 224h-274v-131h274q32 0 45 9.5t13 36.5v39q0 27 -13 36.5t-45 9.5zM524 432h-274v-123h274q29 0 42 7.5t13 29.5v49q0 22 -13 29.5t-42 7.5z" />
<glyph unicode="C" horiz-adv-x="801" d="M565 424h-324v-327h324v111l120 -25v-61q0 -72 -27 -97t-101 -25h-308q-74 0 -101 25t-27 97v272q0 72 27 97t101 25h308q74 0 101 -25t27 -97v-49l-120 -19v98z" />
<glyph unicode="D" horiz-adv-x="847" d="M132 0v516h332q143 0 219 -67t76 -188q0 -72 -30 -130t-84 -91q-65 -40 -212 -40h-301zM252 97h155q119 0 173.5 36.5t54.5 129.5q0 161 -170 161h-213v-327z" />
<glyph unicode="E" horiz-adv-x="755" d="M132 0v516h528v-88h-408v-115h238v-88h-238v-128h413v-97h-533z" />
<glyph unicode="F" horiz-adv-x="671" d="M132 0v516h522v-90h-402v-136h217v-94h-217v-196h-120z" />
<glyph unicode="G" horiz-adv-x="855" d="M616 424h-375v-327h375v115h-196v88h313v-178q0 -72 -27 -97t-101 -25h-356q-74 0 -101 25t-27 97v272q0 72 27 97t101 25h356q72 0 100 -24.5t28 -92.5v-12l-117 -21v58z" />
<glyph unicode="H" horiz-adv-x="880" d="M132 0v516h120v-200h375v200h121v-516h-121v222h-375v-222h-120z" />
<glyph unicode="I" horiz-adv-x="384" d="M132 0v516h120v-516h-120z" />
<glyph unicode="J" horiz-adv-x="667" d="M207 0q-74 0 -101 25t-27 97v107l121 23v-155h236v419h120v-394q0 -72 -27 -97t-101 -25h-221z" />
<glyph unicode="K" horiz-adv-x="794" d="M132 0v516h121v-215l286 215h174l-342 -243l384 -273h-193l-309 227v-227h-121z" />
<glyph unicode="L" horiz-adv-x="683" d="M132 0v516h120v-419h387v-97h-507z" />
<glyph unicode="M" horiz-adv-x="926" d="M131 0v516h97l243 -312l238 312h96v-516h-111v319q0 19 4 55q-18 -39 -30 -54l-194 -258h-24l-194 259q-21 28 -31 53q3 -32 3 -55v-319h-97z" />
<glyph unicode="N" horiz-adv-x="869" d="M131 0v516h82l363 -304q36 -29 59 -56q-5 72 -5 89v271h108v-516h-82l-379 319q-26 22 -43 42q5 -50 5 -82v-279h-108z" />
<glyph unicode="O" horiz-adv-x="878" d="M241 97h396v327h-396v-327zM121 394q0 72 27 97t101 25h380q74 0 101 -25t27 -97v-272q0 -72 -27 -97t-101 -25h-380q-74 0 -101 25t-27 97v272z" />
<glyph unicode="P" horiz-adv-x="743" d="M132 0v516h441q61 0 89 -23.5t28 -76.5v-115q0 -53 -28 -76.5t-89 -23.5h-323v-201h-118zM520 427h-270v-137h270q29 0 41.5 8.5t12.5 32.5v55q0 24 -12.5 32.5t-41.5 8.5z" />
<glyph unicode="Q" horiz-adv-x="878" d="M241 97h177l-48 112l87 35l70 -147h110v327h-396v-327zM121 394q0 72 27 97t101 25h380q74 0 101 -25t27 -97v-272q0 -72 -27 -97t-101 -25h-56l65 -133h-119l-58 133h-212q-74 0 -101 25t-27 97v272z" />
<glyph unicode="R" horiz-adv-x="802" d="M132 0v516h441q61 0 89 -23.5t28 -76.5v-121q0 -53 -28 -76.5t-89 -23.5h-67l238 -195h-172l-208 195h-114v-195h-118zM520 427h-270v-144h270q29 0 41.5 8.5t12.5 32.5v62q0 24 -12.5 32.5t-41.5 8.5z" />
<glyph unicode="S" horiz-adv-x="809" d="M579 426h-338v-111h322q74 0 101.5 -25t27.5 -97v-71q0 -72 -27.5 -97t-101.5 -25h-319q-74 0 -101.5 25t-27.5 97v14l106 22v-61h365v118h-322q-74 0 -101 25t-27 97v57q0 72 27 97t101 25h293q71 0 99.5 -24t28.5 -89v-11l-106 -25v59z" />
<glyph unicode="T" horiz-adv-x="625" d="M372 424v-424h-120v424h-237v92h595v-92h-238z" />
<glyph unicode="U" horiz-adv-x="846" d="M252 516v-419h342v419h120v-394q0 -72 -27 -97t-101 -25h-326q-74 0 -101 25t-27 97v394h120z" />
<glyph unicode="V" horiz-adv-x="681" d="M306 0l-298 516h137l209 -373l199 373h120l-284 -516h-83z" />
<glyph unicode="W" horiz-adv-x="926" d="M238 0l-199 516h124l131 -346l137 346h84l140 -346l125 346h107l-199 -516h-81l-142 357l-144 -357h-83z" />
<glyph unicode="X" horiz-adv-x="718" d="M53 0l245 265l-249 251h159l165 -175l157 175h138l-225 -237l278 -279h-163l-189 200l-174 -200h-142z" />
<glyph unicode="Y" horiz-adv-x="672" d="M276 0v231l-268 285h160l177 -198l178 198h141l-267 -282v-234h-121z" />
<glyph unicode="Z" horiz-adv-x="682" d="M61 0v56l361 368h-325v92h518v-51l-366 -368h366v-97h-554z" />
<glyph unicode="[" horiz-adv-x="331" d="M315 -16h-221v548h221v-71h-125v-403h125v-74z" />
<glyph unicode="\" horiz-adv-x="278" d="M42 532l260 -548h-64l-262 548h66z" />
<glyph unicode="]" horiz-adv-x="331" d="M16 -16v74h125v403h-125v71h221v-548h-221z" />
<glyph unicode="^" horiz-adv-x="1000" d="M545 712l249 -272h-88l-206 205l-207 -205h-88l249 272h91z" />
<glyph unicode="_" d="M500 -166v-70h-500v70h500z" />
<glyph unicode="`" d="M322 478h-64l-144 169h108z" />
<glyph unicode="a" horiz-adv-x="646" d="M230 170h194l-99 176zM30 0l251 423h99l255 -423h-116l-53 93h-280l-53 -93h-103z" />
<glyph unicode="b" horiz-adv-x="657" d="M427 184h-231v-108h231q27 0 38.5 8t11.5 30v32q0 22 -11.5 30t-38.5 8zM427 354h-231v-100h231q25 0 35.5 6t10.5 24v40q0 18 -10.5 24t-35.5 6zM94 0v423h380q52 0 76 -19t24 -63v-51q0 -59 -72 -72q36 -6 55.5 -27.5t19.5 -53.5v-54q0 -83 -131 -83h-352z" />
<glyph unicode="c" horiz-adv-x="644" d="M465 345h-278v-264h278v90l104 -21v-50q0 -59 -23.5 -79.5t-87.5 -20.5h-264q-64 0 -87 21t-23 79v223q0 59 23 79.5t87 20.5h264q64 0 87.5 -20.5t23.5 -79.5v-41l-104 -15v78z" />
<glyph unicode="d" horiz-adv-x="694" d="M94 0v423h285q124 0 189 -55t65 -155q0 -213 -280 -213h-259zM198 79h133q103 0 149.5 30t46.5 109q0 129 -147 129h-182v-268z" />
<glyph unicode="e" horiz-adv-x="608" d="M94 0v423h454v-75h-350v-92h204v-73h-204v-104h355v-79h-459z" />
<glyph unicode="f" horiz-adv-x="550" d="M94 0v423h449v-76h-345v-110h186v-79h-186v-158h-104z" />
<glyph unicode="g" horiz-adv-x="692" d="M509 345h-322v-264h322v90h-168v75h269v-146q0 -59 -23 -79.5t-87 -20.5h-306q-64 0 -87 20.5t-23 79.5v223q0 59 23.5 79.5t86.5 20.5h306q62 0 86 -19.5t24 -75.5v-11l-101 -17v45z" />
<glyph unicode="h" horiz-adv-x="718" d="M94 0v423h104v-161h322v161h103v-423h-103v178h-322v-178h-104z" />
<glyph unicode="i" horiz-adv-x="291" d="M94 0v423h103v-423h-103z" />
<glyph unicode="j" horiz-adv-x="560" d="M166 0q-64 0 -87.5 20.5t-23.5 79.5v88l104 19v-128h202v344h104v-323q0 -59 -23.5 -79.5t-87.5 -20.5h-188z" />
<glyph unicode="k" horiz-adv-x="620" d="M94 0v423h104v-171l247 171h149l-292 -196l325 -227h-163l-266 191v-191h-104z" />
<glyph unicode="l" horiz-adv-x="552" d="M94 0v423h104v-344h332v-79h-436z" />
<glyph unicode="m" horiz-adv-x="767" d="M94 0v423h83l207 -251l206 251h83v-423h-96v291l-189 -240h-20l-191 233v-284h-83z" />
<glyph unicode="n" horiz-adv-x="712" d="M94 0v423h71l359 -281v281h93v-423h-71l-358 285v-285h-94z" />
<glyph unicode="o" horiz-adv-x="715" d="M84 323q0 60 23 80t87 20h327q64 0 87 -20t23 -80v-223q0 -59 -23.5 -79.5t-86.5 -20.5h-327q-64 0 -87 20.5t-23 79.5v223zM187 81h341v264h-341v-264z" />
<glyph unicode="p" horiz-adv-x="628" d="M431 350h-235v-112h235q25 0 36 7t11 27v44q0 20 -11 27t-36 7zM94 0v423h381q52 0 75.5 -19t23.5 -63v-94q0 -44 -23.5 -63t-75.5 -19h-279v-165h-102z" />
<glyph unicode="q" horiz-adv-x="715" d="M187 81h155l-44 91l74 28l58 -119h98v264h-341v-264zM84 323q0 60 23.5 80t86.5 20h327q63 0 86.5 -19.5t23.5 -80.5v-222q0 -59 -23.5 -79.5t-86.5 -20.5h-50l58 -109h-104l-48 109h-183q-64 0 -87 20.5t-23 79.5v222z" />
<glyph unicode="r" horiz-adv-x="650" d="M94 0v423h381q52 0 75.5 -19t23.5 -63v-100q0 -43 -23.5 -62t-75.5 -19h-58l201 -160h-148l-177 160h-97v-160h-102zM431 350h-235v-117h235q25 0 36 7t11 27v49q0 20 -11 27t-36 7z" />
<glyph unicode="s" horiz-adv-x="663" d="M485 347h-291v-89h275q64 0 87 -20.5t23 -79.5v-58q0 -59 -23 -79.5t-87 -20.5h-274q-64 0 -88 20.5t-24 79.5v12l92 17v-50h311v97h-274q-63 0 -87 20.5t-24 79.5v47q0 59 24 79.5t87 20.5h251q61 0 86 -19t25 -73v-10l-89 -19v45z" />
<glyph unicode="t" horiz-adv-x="590" d="M346 347v-347h-103v347h-204v76h512v-76h-205z" />
<glyph unicode="u" horiz-adv-x="689" d="M197 423v-344h294v344h104v-323q0 -59 -23.5 -79.5t-87.5 -20.5h-280q-64 0 -87 20.5t-23 79.5v323h103z" />
<glyph unicode="v" horiz-adv-x="632" d="M292 0l-256 423h117l179 -307l169 307h107l-245 -423h-71z" />
<glyph unicode="w" horiz-adv-x="789" d="M208 0l-172 423h108l111 -295l119 295h71l118 -295l109 295h93l-170 -423h-70l-122 299l-124 -299h-71z" />
<glyph unicode="x" horiz-adv-x="638" d="M51 0l209 217l-213 206h138l142 -137l134 137h119l-193 -194l238 -229h-141l-162 158l-149 -158h-122z" />
<glyph unicode="y" horiz-adv-x="593" d="M254 0v190l-231 233h139l151 -158l153 158h121l-230 -231v-192h-103z" />
<glyph unicode="z" horiz-adv-x="616" d="M70 0v46l310 301h-279v76h446v-42l-316 -303h316v-78h-477z" />
<glyph unicode="{" d="M423 648h-20q-61 0 -80 -23t-19 -89v-118q0 -73 -20 -108.5t-78 -50.5q59 -15 78.5 -50t19.5 -109v-118q0 -66 19 -89t81 -23h19v-72h-21q-95 0 -133 24q-31 19 -40 52.5t-9 97.5v120q0 72 -26 102t-91 30q-3 0 -10 -0.5t-11 -0.5v73q4 0 11.5 -0.5t10.5 -0.5 q64 0 90 29.5t26 101.5v120q0 64 9 97.5t40 52.5q41 25 136 25h18v-73z" />
<glyph unicode="|" d="M287 764v-1000h-73v1000h73z" />
<glyph unicode="}" d="M281 546v-120q0 -72 26 -101.5t90 -29.5q3 0 10.5 0.5t11.5 0.5v-73q-4 0 -11 0.5t-10 0.5q-65 0 -91 -30t-26 -102v-120q0 -64 -9 -97.5t-40 -52.5q-38 -24 -133 -24h-21v72h19q61 0 80.5 23.5t19.5 89.5v117q0 73 20 108.5t78 50.5q-58 15 -78 50.5t-20 108.5v118 q0 66 -19.5 89t-80.5 23h-19v73h18q96 0 136 -25q31 -19 40 -52.5t9 -97.5z" />
<glyph unicode="~" horiz-adv-x="833" d="M747 300q-99 -69 -190 -69q-12 0 -25.5 1.5t-22.5 3t-25.5 6.5t-21.5 6l-24 9q-20 7 -22 8q-94 32 -141 32q-79 0 -188 -77v76q103 70 189 70q58 0 142 -30q4 -2 23 -8l25 -9q6 -2 22 -6.5t24.5 -6.5t21.5 -3.5t24 -1.5q83 0 189 75v-76z" />
<glyph unicode="&#xa1;" horiz-adv-x="384" d="M230 306l38 -306h-155l38 306h79zM155 374h-17q-15 0 -20 7.5t-5 26.5v74q0 24 7.5 29t34.5 5h88q15 0 20 -7.5t5 -26.5v-74q0 -24 -7.5 -29t-34.5 -5h-71z" />
<glyph unicode="&#xa2;" horiz-adv-x="773" d="M268 -101l35 101h-26q-44 0 -60 19t-16 63v184q0 47 19.5 63.5t74.5 16.5h127l28 82h54l-28 -82q59 0 77.5 -14t18.5 -60v-45l-88 -14v54h-35l-65 -186h100v68l88 -21v-65q0 -36 -18.5 -49.5t-62.5 -13.5h-134l-35 -101h-54zM331 81l64 186h-99v-186h35z" />
<glyph unicode="&#xa3;" horiz-adv-x="773" d="M105 -12v103q61 5 86.5 30t25.5 78l-2 28h-111v79h105q-4 32 -4 66q0 76 38 110t122 34h175q137 0 137 -100v-47l-101 -17v30q0 30 -16.5 40.5t-54.5 10.5h-114q-51 0 -68.5 -15.5t-17.5 -63.5q0 -25 4 -48h146v-79h-142q-2 -61 -17 -103q128 -35 232 -35q55 0 73 12.5 t18 52.5v20l98 -18v-37q0 -127 -166 -127q-120 0 -298 52q-63 -56 -139 -56h-9z" />
<glyph unicode="&#xa4;" horiz-adv-x="773" d="M213 424v-73h230l-29 -64h-201v-57h176l-29 -65h-147v-72h369v115l109 -25v-61q0 -71 -27 -96.5t-101 -25.5h-330q-74 0 -101 25.5t-27 96.5v43h-87l29 65h58v57h-99l29 64h70v43q0 71 27 96.5t101 25.5h330q74 0 101 -25.5t27 -96.5v-49l-109 -19v98h-369z" />
<glyph unicode="&#xa5;" horiz-adv-x="773" d="M570 516h140l-135 -144h109v-65h-169l-72 -77h241v-65h-241v-165h-111v165h-242v65h242l-72 77h-170v65h109l-136 144h158l175 -203z" />
<glyph unicode="&#xa6;" d="M287 699v-370h-73v370h73zM287 199v-370h-73v370h73z" />
<glyph unicode="&#xa7;" d="M132 263q0 -33 59 -65q76 -42 131 -42q23 0 36.5 10.5t13.5 27.5q0 32 -70 69q-74 39 -125 39q-21 0 -33 -11t-12 -28zM76 -21l58 54q56 -55 117 -55q29 0 46.5 13t17.5 32q0 21 -18 33t-67 32q-9 4 -14 6q-83 34 -119 65t-36 78q0 40 26 67t74 34q-56 35 -56 89 q0 47 38.5 77t101.5 30q93 0 160 -59l-58 -51q-53 48 -99 48q-28 0 -44 -12t-16 -30q0 -21 19 -33.5t68 -31.5q89 -35 128 -64.5t39 -78.5q0 -38 -27.5 -65t-76.5 -37q29 -14 45.5 -40t16.5 -56q0 -48 -41.5 -81t-106.5 -33q-101 0 -176 69z" />
<glyph unicode="&#xa8;" d="M117 501v112h100v-112h-100zM283 501v112h100v-112h-100z" />
<glyph unicode="&#xa9;" horiz-adv-x="833" d="M416 715q151 0 256 -105t105 -255t-104 -252q-111 -108 -257 -108t-253 107q-106 106 -106 253t107 256q104 104 252 104zM729 355q0 131 -90 221q-92 92 -222 92q-129 0 -219 -90q-94 -94 -94 -223q0 -127 93 -220q92 -92 220 -92q126 0 222 93q90 88 90 219zM514 443 q-6 37 -32 57.5t-68 20.5q-50 0 -80 -43.5t-30 -122.5q0 -77 30.5 -119.5t84.5 -42.5q40 0 66.5 23t33.5 63h71q-5 -64 -53 -103.5t-121 -39.5q-88 0 -139 58.5t-51 163.5q0 98 53.5 157.5t139.5 59.5q70 0 116 -36.5t51 -95.5h-72z" />
<glyph unicode="&#xaa;" horiz-adv-x="426" d="M152 308h128l-65 106zM20 206l165 254h66l168 -254h-76l-35 56h-185l-35 -56h-68z" />
<glyph unicode="&#xab;" horiz-adv-x="562" d="M269 64h-89l-118 148l118 147h89l-114 -147zM500 64h-89l-118 148l118 147h89l-114 -147z" />
<glyph unicode="&#xac;" horiz-adv-x="833" d="M709 420v-245h-67v177h-518v68h585z" />
<glyph unicode="&#xad;" horiz-adv-x="330" d="M48 215v103h233v-103h-233z" />
<glyph unicode="&#xae;" horiz-adv-x="833" d="M416 715q152 0 257 -107q104 -106 104 -253q0 -151 -105 -253q-110 -107 -256 -107q-148 0 -254 108q-105 107 -105 252q0 147 109 258q100 102 250 102zM729 352q0 134 -89 223q-91 93 -223 93q-131 0 -218 -89q-95 -97 -95 -224q0 -125 92 -219q91 -93 218 -93 q129 0 224 92q91 88 91 217zM426 566q170 0 170 -112q0 -43 -24.5 -72t-68.5 -38l91 -186h-86l-83 174h-76v-174h-77v408h154zM412 516h-63v-135h65q54 0 78.5 15t24.5 50q0 37 -25 53.5t-80 16.5z" />
<glyph unicode="&#xaf;" d="M115 521v72h270v-72h-270z" />
<glyph unicode="&#xb0;" horiz-adv-x="329" d="M165 711q58 0 99 -41.5t41 -99.5t-41 -99t-100 -41t-99.5 40.5t-40.5 99.5t41.5 100t99.5 41zM259 571q0 39 -27 66.5t-67 27.5q-39 0 -67 -27.5t-28 -66.5q0 -40 27.5 -68t67.5 -28t67 28t27 68z" />
<glyph unicode="&#xb1;" horiz-adv-x="833" d="M451 582v-166h258v-68h-258v-166h-69v166h-258v68h258v166h69zM709 83v-69h-585v69h585z" />
<glyph unicode="&#xb2;" horiz-adv-x="510" d="M92 455q0 36 17 48.5t61 12.5h175q44 0 61 -12.5t17 -48.5v-20q0 -25 -9 -36.5t-35 -26.5l-200 -110h198v45l63 -16v-24q0 -37 -16.5 -49t-61.5 -12h-287v28q0 18 7.5 29.5t35.5 27.5l236 132v40h-194v-64l-68 16v40z" />
<glyph unicode="&#xb3;" horiz-adv-x="510" d="M150 206q-45 0 -61 12t-16 49v25l70 13v-43h183q20 0 26.5 5.5t6.5 21.5v23q0 17 -7 22.5t-26 5.5h-115v51h103q19 0 25.5 5.5t6.5 22.5v16q0 17 -6.5 22.5t-25.5 5.5h-169v-39l-67 12v19q0 36 17 48.5t61 12.5h184q44 0 61 -12.5t17 -48.5v-28q0 -28 -14.5 -41 t-51.5 -18q79 -7 79 -63v-32q0 -37 -17.5 -52t-65.5 -15h-198z" />
<glyph unicode="&#xb4;" d="M178 478l100 169h108l-144 -169h-64z" />
<glyph unicode="&#xb5;" horiz-adv-x="562" d="M188 523l-63 -293q-7 -31 -7 -65q0 -49 25.5 -75t72.5 -26q66 0 103 46.5t59 150.5l56 262h87l-76 -357q-11 -53 -11 -65q0 -18 8 -25.5t27 -7.5q10 0 16 1l-15 -70q-24 -5 -53 -5q-31 0 -47.5 14.5t-25.5 48.5q-43 -64 -132 -64q-77 0 -125 57l-54 -259h-88l155 732h88z " />
<glyph unicode="&#xb6;" d="M468 680h-59v-680h-54v680h-87v-680h-54v382q-84 4 -133 50.5t-49 119.5q0 76 52 123t140 47h244v-42z" />
<glyph unicode="&#xb7;" horiz-adv-x="331" d="M84 258q0 34 23 57.5t58 23.5t58.5 -23.5t23.5 -57.5q0 -33 -24.5 -57.5t-57.5 -24.5t-57 24.5t-24 57.5z" />
<glyph unicode="&#xb8;" d="M140 -212v58q81 -21 125 -21q53 0 53 37q0 39 -70 39q-3 0 -9.5 -0.5t-10.5 -0.5v100h44v-46h8q115 0 115 -94q0 -44 -31.5 -68.5t-90.5 -24.5q-55 0 -133 21z" />
<glyph unicode="&#xb9;" horiz-adv-x="510" d="M233 206v251h-72v41l144 20v-312h-72z" />
<glyph unicode="&#xba;" horiz-adv-x="472" d="M55 400q0 35 15.5 47.5t57.5 12.5h216q42 0 57 -12t15 -48v-134q0 -36 -15 -48t-57 -12h-216q-42 0 -57.5 12.5t-15.5 47.5v134zM123 255h225v158h-225v-158z" />
<glyph unicode="&#xbb;" horiz-adv-x="562" d="M62 359h89l118 -147l-118 -148h-89l114 148zM294 359h88l118 -147l-118 -148h-88l113 148z" />
<glyph unicode="&#xbc;" horiz-adv-x="1141" d="M223 227v234h-69v39l138 18v-291h-69zM820 532l-435 -548h-65l436 548h64zM951 112v129l-177 -129h177zM951 -3v67h-246v48l244 180h71v-180h79v-48h-79v-67h-69z" />
<glyph unicode="&#xbd;" horiz-adv-x="1141" d="M223 227v234h-69v39l138 18v-291h-69zM820 532l-435 -548h-65l436 548h64zM742 232q0 34 16 45.5t59 11.5h166q43 0 59 -11.5t16 -45.5v-18q0 -24 -8.5 -34.5t-33.5 -24.5l-191 -103h189v43l60 -15v-23q0 -34 -16 -45.5t-59 -11.5h-273v26q0 17 7 27.5t34 25.5l225 123 v38h-186v-60l-64 15v37z" />
<glyph unicode="&#xbe;" horiz-adv-x="1141" d="M144 227q-43 0 -59 11.5t-16 45.5v23l67 12v-40h175q19 0 25.5 5t6.5 21v21q0 16 -6.5 21t-25.5 5h-109v47h97q19 0 25 5.5t6 21.5v14q0 16 -6 21.5t-25 5.5h-160v-36l-65 10v18q0 34 16 45.5t59 11.5h175q43 0 59 -11.5t16 -45.5v-26q0 -25 -14 -37.5t-49 -17.5 q75 -6 75 -59v-30q0 -35 -16.5 -48.5t-61.5 -13.5h-189zM820 532l-435 -548h-65l436 548h64zM951 112v129l-177 -129h177zM951 -3v67h-246v48l244 180h71v-180h79v-48h-79v-67h-69z" />
<glyph unicode="&#xbf;" horiz-adv-x="662" d="M298 374h-17q-15 0 -20 7.5t-5 26.5v74q0 24 7.5 29t34.5 5h88q15 0 20 -7.5t5 -26.5v-74q0 -24 -7.5 -29t-34.5 -5h-71zM383 307v-72l-173 -104v-45h231v64l100 -16v-28q0 -106 -108 -106h-204q-123 0 -123 97v81l175 102v27h102z" />
<glyph unicode="&#xc0;" horiz-adv-x="771" d="M33 0l292 516h116l296 -516h-135l-62 113h-327l-60 -113h-120zM264 206h226l-111 210zM458 571h-64l-144 169h108z" />
<glyph unicode="&#xc1;" horiz-adv-x="771" d="M33 0l292 516h116l296 -516h-135l-62 113h-327l-60 -113h-120zM264 206h226l-111 210zM314 571l100 169h108l-144 -169h-64z" />
<glyph unicode="&#xc2;" horiz-adv-x="771" d="M33 0l292 516h116l296 -516h-135l-62 113h-327l-60 -113h-120zM264 206h226l-111 210zM241 570l92 170h106l92 -170h-64l-81 103l-82 -103h-63z" />
<glyph unicode="&#xc3;" horiz-adv-x="771" d="M33 0l292 516h116l296 -516h-135l-62 113h-327l-60 -113h-120zM264 206h226l-111 210zM533 709q-11 -57 -34.5 -83.5t-62.5 -26.5q-16 0 -34 5l-41 12q-18 5 -31 5q-32 0 -42 -33h-49q19 107 94 107q19 0 41 -7l43 -12q12 -3 25 -3q33 0 42 36h49z" />
<glyph unicode="&#xc4;" horiz-adv-x="771" d="M33 0l292 516h116l296 -516h-135l-62 113h-327l-60 -113h-120zM264 206h226l-111 210zM253 594v112h100v-112h-100zM419 594v112h100v-112h-100z" />
<glyph unicode="&#xc5;" horiz-adv-x="771" d="M33 0l292 516h116l296 -516h-135l-62 113h-327l-60 -113h-120zM264 206h226l-111 210zM257 675q0 53 36.5 89t88.5 36q53 0 90 -36.5t37 -88.5q0 -53 -37 -89.5t-90 -36.5t-89 36.5t-36 89.5zM321 674q0 -26 18 -44t44 -18t44 18t18 44t-18 44.5t-44 18.5t-44 -18.5 t-18 -44.5z" />
<glyph unicode="&#xc6;" horiz-adv-x="1069" d="M980 97v-97h-456v128h-265l-105 -128h-137l431 516h527v-88h-334v-115h239v-88h-239v-128h339zM524 222v216h-18l-178 -216h196z" />
<glyph unicode="&#xc7;" horiz-adv-x="801" d="M565 424h-324v-327h324v111l120 -25v-61q0 -72 -27 -97t-101 -25h-308q-74 0 -101 25t-27 97v272q0 72 27 97t101 25h308q74 0 101 -25t27 -97v-49l-120 -19v98zM291 -212v58q81 -21 125 -21q53 0 53 37q0 39 -70 39q-3 0 -9.5 -0.5t-10.5 -0.5v100h44v-46h8 q115 0 115 -94q0 -44 -31.5 -68.5t-90.5 -24.5q-55 0 -133 21z" />
<glyph unicode="&#xc8;" horiz-adv-x="755" d="M132 0v516h528v-88h-408v-115h238v-88h-238v-128h413v-97h-533zM471 571h-64l-144 169h108z" />
<glyph unicode="&#xc9;" horiz-adv-x="755" d="M132 0v516h528v-88h-408v-115h238v-88h-238v-128h413v-97h-533zM327 571l100 169h108l-144 -169h-64z" />
<glyph unicode="&#xca;" horiz-adv-x="755" d="M132 0v516h528v-88h-408v-115h238v-88h-238v-128h413v-97h-533zM254 570l92 170h106l92 -170h-64l-81 103l-82 -103h-63z" />
<glyph unicode="&#xcb;" horiz-adv-x="755" d="M132 0v516h528v-88h-408v-115h238v-88h-238v-128h413v-97h-533zM266 594v112h100v-112h-100zM432 594v112h100v-112h-100z" />
<glyph unicode="&#xcc;" horiz-adv-x="384" d="M132 0v516h120v-516h-120zM264 571h-64l-144 169h108z" />
<glyph unicode="&#xcd;" horiz-adv-x="384" d="M132 0v516h120v-516h-120zM120 571l100 169h108l-144 -169h-64z" />
<glyph unicode="&#xce;" horiz-adv-x="384" d="M132 0v516h120v-516h-120zM47 570l92 170h106l92 -170h-64l-81 103l-82 -103h-63z" />
<glyph unicode="&#xcf;" horiz-adv-x="384" d="M132 0v516h120v-516h-120zM59 594v112h100v-112h-100zM225 594v112h100v-112h-100z" />
<glyph unicode="&#xd0;" horiz-adv-x="847" d="M132 0v223h-96v95h96v198h332q143 0 219 -67t76 -188q0 -72 -30 -130t-84 -91q-65 -40 -212 -40h-301zM252 97h155q119 0 173.5 36.5t54.5 129.5q0 161 -170 161h-213v-106h192v-95h-192v-126z" />
<glyph unicode="&#xd1;" horiz-adv-x="869" d="M131 0v516h82l363 -304q36 -29 59 -56q-5 72 -5 89v271h108v-516h-82l-379 319q-26 22 -43 42q5 -50 5 -82v-279h-108zM582 709q-11 -57 -34.5 -83.5t-62.5 -26.5q-16 0 -34 5l-41 12q-18 5 -31 5q-31 0 -42 -33h-49q19 107 94 107q19 0 41 -7l43 -12q12 -3 25 -3 q33 0 42 36h49z" />
<glyph unicode="&#xd2;" horiz-adv-x="878" d="M241 97h396v327h-396v-327zM121 394q0 72 27 97t101 25h380q74 0 101 -25t27 -97v-272q0 -72 -27 -97t-101 -25h-380q-74 0 -101 25t-27 97v272zM511 571h-64l-144 169h108z" />
<glyph unicode="&#xd3;" horiz-adv-x="878" d="M241 97h396v327h-396v-327zM121 394q0 72 27 97t101 25h380q74 0 101 -25t27 -97v-272q0 -72 -27 -97t-101 -25h-380q-74 0 -101 25t-27 97v272zM367 571l100 169h108l-144 -169h-64z" />
<glyph unicode="&#xd4;" horiz-adv-x="878" d="M241 97h396v327h-396v-327zM121 394q0 72 27 97t101 25h380q74 0 101 -25t27 -97v-272q0 -72 -27 -97t-101 -25h-380q-74 0 -101 25t-27 97v272zM294 570l92 170h106l92 -170h-64l-81 103l-82 -103h-63z" />
<glyph unicode="&#xd5;" horiz-adv-x="878" d="M241 97h396v327h-396v-327zM121 394q0 72 27 97t101 25h380q74 0 101 -25t27 -97v-272q0 -72 -27 -97t-101 -25h-380q-74 0 -101 25t-27 97v272zM586 709q-11 -57 -34.5 -83.5t-62.5 -26.5q-16 0 -34 5l-41 12q-18 5 -31 5q-31 0 -42 -33h-49q19 107 94 107q19 0 41 -7 l43 -12q12 -3 25 -3q33 0 42 36h49z" />
<glyph unicode="&#xd6;" horiz-adv-x="878" d="M241 97h396v327h-396v-327zM121 394q0 72 27 97t101 25h380q74 0 101 -25t27 -97v-272q0 -72 -27 -97t-101 -25h-380q-74 0 -101 25t-27 97v272zM306 594v112h100v-112h-100zM472 594v112h100v-112h-100z" />
<glyph unicode="&#xd7;" horiz-adv-x="833" d="M420 346l229 229l48 -48l-229 -229l229 -229l-48 -47l-229 228l-229 -228l-48 47l229 229l-229 229l48 48z" />
<glyph unicode="&#xd8;" horiz-adv-x="878" d="M637 424h-47l-228 -327h275v327zM121 394q0 72 27 97t101 25h319l92 128h99l-91 -129q50 -4 69.5 -32t19.5 -89v-272q0 -72 -27 -97t-101 -25h-321l-90 -128h-99l90 130q-49 4 -68.5 31.5t-19.5 88.5v272zM241 97h48l227 327h-275v-327z" />
<glyph unicode="&#xd9;" horiz-adv-x="846" d="M252 516v-419h342v419h120v-394q0 -72 -27 -97t-101 -25h-326q-74 0 -101 25t-27 97v394h120zM495 571h-64l-144 169h108z" />
<glyph unicode="&#xda;" horiz-adv-x="846" d="M252 516v-419h342v419h120v-394q0 -72 -27 -97t-101 -25h-326q-74 0 -101 25t-27 97v394h120zM351 571l100 169h108l-144 -169h-64z" />
<glyph unicode="&#xdb;" horiz-adv-x="846" d="M252 516v-419h342v419h120v-394q0 -72 -27 -97t-101 -25h-326q-74 0 -101 25t-27 97v394h120zM278 570l92 170h106l92 -170h-64l-81 103l-82 -103h-63z" />
<glyph unicode="&#xdc;" horiz-adv-x="846" d="M252 516v-419h342v419h120v-394q0 -72 -27 -97t-101 -25h-326q-74 0 -101 25t-27 97v394h120zM290 594v112h100v-112h-100zM456 594v112h100v-112h-100z" />
<glyph unicode="&#xdd;" horiz-adv-x="672" d="M276 0v231l-268 285h160l177 -198l178 198h141l-267 -282v-234h-121zM264 571l100 169h108l-144 -169h-64z" />
<glyph unicode="&#xde;" horiz-adv-x="743" d="M132 516h118v-91h323q61 0 89 -23.5t28 -76.5v-115q0 -53 -28 -76.5t-89 -23.5h-323v-110h-118v516zM250 336v-137h270q29 0 41.5 8.5t12.5 32.5v55q0 24 -12.5 32.5t-41.5 8.5h-270z" />
<glyph unicode="&#xdf;" horiz-adv-x="1326" d="M485 347h-291v-89h275q64 0 87 -20.5t23 -79.5v-58q0 -59 -23 -79.5t-87 -20.5h-274q-64 0 -88 20.5t-24 79.5v12l92 17v-50h311v97h-274q-63 0 -87 20.5t-24 79.5v47q0 59 24 79.5t87 20.5h251q61 0 86 -19t25 -73v-10l-89 -19v45zM1148 347h-291v-89h275q64 0 87 -20.5 t23 -79.5v-58q0 -59 -23 -79.5t-87 -20.5h-274q-64 0 -88 20.5t-24 79.5v12l92 17v-50h311v97h-274q-63 0 -87 20.5t-24 79.5v47q0 59 24 79.5t87 20.5h251q61 0 86 -19t25 -73v-10l-89 -19v45z" />
<glyph unicode="&#xe0;" horiz-adv-x="646" d="M230 170h194l-99 176zM30 0l251 423h99l255 -423h-116l-53 93h-280l-53 -93h-103zM395 478h-64l-144 169h108z" />
<glyph unicode="&#xe1;" horiz-adv-x="646" d="M230 170h194l-99 176zM30 0l251 423h99l255 -423h-116l-53 93h-280l-53 -93h-103zM251 478l100 169h108l-144 -169h-64z" />
<glyph unicode="&#xe2;" horiz-adv-x="646" d="M230 170h194l-99 176zM30 0l251 423h99l255 -423h-116l-53 93h-280l-53 -93h-103zM178 477l92 170h106l92 -170h-64l-81 103l-82 -103h-63z" />
<glyph unicode="&#xe3;" horiz-adv-x="646" d="M230 170h194l-99 176zM30 0l251 423h99l255 -423h-116l-53 93h-280l-53 -93h-103zM470 616q-11 -57 -34.5 -83.5t-62.5 -26.5q-16 0 -34 5l-41 12q-18 5 -31 5q-31 0 -42 -33h-49q19 107 94 107q19 0 41 -7l43 -12q12 -3 25 -3q33 0 42 36h49z" />
<glyph unicode="&#xe4;" horiz-adv-x="646" d="M230 170h194l-99 176zM30 0l251 423h99l255 -423h-116l-53 93h-280l-53 -93h-103zM190 501v112h100v-112h-100zM356 501v112h100v-112h-100z" />
<glyph unicode="&#xe5;" horiz-adv-x="646" d="M230 170h194l-99 176zM30 0l251 423h99l255 -423h-116l-53 93h-280l-53 -93h-103zM198 594q0 53 36.5 89.5t88.5 36.5q53 0 89.5 -37t36.5 -89q0 -53 -36.5 -89.5t-89.5 -36.5t-89 36.5t-36 89.5zM261 594q0 -26 18.5 -44.5t44.5 -18.5t44 18.5t18 44.5t-18 44t-44 18 t-44.5 -18t-18.5 -44z" />
<glyph unicode="&#xe6;" horiz-adv-x="898" d="M454 182v177h-19l-154 -177h173zM843 80v-80h-389v105h-231l-91 -105h-117l371 423h453v-75h-287v-92h205v-73h-205v-103h291z" />
<glyph unicode="&#xe7;" horiz-adv-x="644" d="M465 345h-278v-264h278v90l104 -21v-50q0 -59 -23.5 -79.5t-87.5 -20.5h-264q-64 0 -87 21t-23 79v223q0 59 23 79.5t87 20.5h264q64 0 87.5 -20.5t23.5 -79.5v-41l-104 -15v78zM215 -212v58q81 -21 125 -21q53 0 53 37q0 39 -70 39q-3 0 -9.5 -0.5t-10.5 -0.5v100h44 v-46h8q115 0 115 -94q0 -44 -31.5 -68.5t-90.5 -24.5q-55 0 -133 21z" />
<glyph unicode="&#xe8;" horiz-adv-x="608" d="M94 0v423h454v-75h-350v-92h204v-73h-204v-104h355v-79h-459zM392 478h-64l-144 169h108z" />
<glyph unicode="&#xe9;" horiz-adv-x="608" d="M94 0v423h454v-75h-350v-92h204v-73h-204v-104h355v-79h-459zM248 478l100 169h108l-144 -169h-64z" />
<glyph unicode="&#xea;" horiz-adv-x="608" d="M94 0v423h454v-75h-350v-92h204v-73h-204v-104h355v-79h-459zM175 477l92 170h106l92 -170h-64l-81 103l-82 -103h-63z" />
<glyph unicode="&#xeb;" horiz-adv-x="608" d="M94 0v423h454v-75h-350v-92h204v-73h-204v-104h355v-79h-459zM187 501v112h100v-112h-100zM353 501v112h100v-112h-100z" />
<glyph unicode="&#xec;" horiz-adv-x="291" d="M94 0v423h103v-423h-103zM218 478h-64l-144 169h108z" />
<glyph unicode="&#xed;" horiz-adv-x="291" d="M94 0v423h103v-423h-103zM74 478l100 169h108l-144 -169h-64z" />
<glyph unicode="&#xee;" horiz-adv-x="291" d="M94 0v423h103v-423h-103zM1 477l92 170h106l92 -170h-64l-81 103l-82 -103h-63z" />
<glyph unicode="&#xef;" horiz-adv-x="291" d="M94 0v423h103v-423h-103zM13 501v112h100v-112h-100zM179 501v112h100v-112h-100z" />
<glyph unicode="&#xf1;" horiz-adv-x="712" d="M94 0v423h71l359 -281v281h93v-423h-71l-358 285v-285h-94zM503 616q-11 -57 -34.5 -83.5t-62.5 -26.5q-16 0 -34 5l-41 12q-18 5 -31 5q-32 0 -42 -33h-49q19 107 94 107q19 0 41 -7l43 -12q12 -3 25 -3q33 0 42 36h49z" />
<glyph unicode="&#xf2;" horiz-adv-x="715" d="M84 323q0 60 23 80t87 20h327q64 0 87 -20t23 -80v-223q0 -59 -23.5 -79.5t-86.5 -20.5h-327q-64 0 -87 20.5t-23 79.5v223zM187 81h341v264h-341v-264zM430 478h-64l-144 169h108z" />
<glyph unicode="&#xf3;" horiz-adv-x="715" d="M84 323q0 60 23 80t87 20h327q64 0 87 -20t23 -80v-223q0 -59 -23.5 -79.5t-86.5 -20.5h-327q-64 0 -87 20.5t-23 79.5v223zM187 81h341v264h-341v-264zM286 478l100 169h108l-144 -169h-64z" />
<glyph unicode="&#xf4;" horiz-adv-x="715" d="M84 323q0 60 23 80t87 20h327q64 0 87 -20t23 -80v-223q0 -59 -23.5 -79.5t-86.5 -20.5h-327q-64 0 -87 20.5t-23 79.5v223zM187 81h341v264h-341v-264zM213 477l92 170h106l92 -170h-64l-81 103l-82 -103h-63z" />
<glyph unicode="&#xf5;" horiz-adv-x="715" d="M84 323q0 60 23 80t87 20h327q64 0 87 -20t23 -80v-223q0 -59 -23.5 -79.5t-86.5 -20.5h-327q-64 0 -87 20.5t-23 79.5v223zM187 81h341v264h-341v-264zM505 616q-11 -57 -34.5 -83.5t-62.5 -26.5q-16 0 -34 5l-41 12q-18 5 -31 5q-32 0 -42 -33h-49q19 107 94 107 q19 0 41 -7l43 -12q12 -3 25 -3q33 0 42 36h49z" />
<glyph unicode="&#xf6;" horiz-adv-x="715" d="M84 323q0 60 23 80t87 20h327q64 0 87 -20t23 -80v-223q0 -59 -23.5 -79.5t-86.5 -20.5h-327q-64 0 -87 20.5t-23 79.5v223zM187 81h341v264h-341v-264zM225 501v112h100v-112h-100zM391 501v112h100v-112h-100z" />
<glyph unicode="&#xf7;" horiz-adv-x="833" d="M417 540q25 0 43 -18.5t18 -43.5t-18 -43t-43 -18t-43 17.5t-18 43.5q0 25 18 43.5t43 18.5zM709 332v-68h-585v68h585zM417 179q25 0 43 -18t18 -43t-18 -43t-43 -18q-26 0 -43.5 17.5t-17.5 43.5q0 25 18 43t43 18z" />
<glyph unicode="&#xf8;" horiz-adv-x="715" d="M187 81h45l191 264h-236v-264zM86 323q0 59 23.5 79.5t86.5 20.5h274l79 105h85l-78 -106q43 -4 60 -26.5t17 -72.5v-223q0 -58 -23 -79t-87 -21h-276l-77 -105h-86l78 107q-42 3 -59 25.5t-17 72.5v223zM529 345h-44l-191 -264h235v264z" />
<glyph unicode="&#xf9;" horiz-adv-x="689" d="M197 423v-344h294v344h104v-323q0 -59 -23.5 -79.5t-87.5 -20.5h-280q-64 0 -87 20.5t-23 79.5v323h103zM417 478h-64l-144 169h108z" />
<glyph unicode="&#xfa;" horiz-adv-x="689" d="M197 423v-344h294v344h104v-323q0 -59 -23.5 -79.5t-87.5 -20.5h-280q-64 0 -87 20.5t-23 79.5v323h103zM273 478l100 169h108l-144 -169h-64z" />
<glyph unicode="&#xfb;" horiz-adv-x="689" d="M197 423v-344h294v344h104v-323q0 -59 -23.5 -79.5t-87.5 -20.5h-280q-64 0 -87 20.5t-23 79.5v323h103zM200 477l92 170h106l92 -170h-64l-81 103l-82 -103h-63z" />
<glyph unicode="&#xfc;" horiz-adv-x="689" d="M197 423v-344h294v344h104v-323q0 -59 -23.5 -79.5t-87.5 -20.5h-280q-64 0 -87 20.5t-23 79.5v323h103zM212 501v112h100v-112h-100zM378 501v112h100v-112h-100z" />
<glyph unicode="&#xfd;" horiz-adv-x="593" d="M254 0v190l-231 233h139l151 -158l153 158h121l-230 -231v-192h-103zM225 478l100 169h108l-144 -169h-64z" />
<glyph unicode="&#xff;" horiz-adv-x="593" d="M254 0v190l-231 233h139l151 -158l153 158h121l-230 -231v-192h-103zM164 501v112h100v-112h-100zM330 501v112h100v-112h-100z" />
<glyph unicode="&#x152;" horiz-adv-x="1105" d="M241 97h320v331h-320v-331zM121 394q0 72 27 97t101 25h762v-88h-333v-115h238v-88h-238v-128h338v-97h-767q-74 0 -101 25t-27 97v272z" />
<glyph unicode="&#x153;" horiz-adv-x="907" d="M84 323q0 59 23 79.5t87 20.5h656v-75h-287v-92h205v-73h-205v-103h291v-80h-660q-64 0 -87 20.5t-23 79.5v223zM187 81h276v264h-276v-264z" />
<glyph unicode="&#x178;" horiz-adv-x="672" d="M276 0v231l-268 285h160l177 -198l178 198h141l-267 -282v-234h-121zM203 594v112h100v-112h-100zM369 594v112h100v-112h-100z" />
<glyph unicode="&#x2c6;" d="M105 477l92 170h106l92 -170h-64l-81 103l-82 -103h-63z" />
<glyph unicode="&#x2dc;" d="M397 616q-11 -57 -34.5 -83.5t-62.5 -26.5q-16 0 -34 5l-41 12q-18 5 -31 5q-32 0 -42 -33h-49q19 107 94 107q19 0 41 -7l43 -12q12 -3 25 -3q33 0 42 36h49z" />
<glyph unicode="&#x2000;" horiz-adv-x="400" />
<glyph unicode="&#x2001;" horiz-adv-x="800" />
<glyph unicode="&#x2002;" horiz-adv-x="400" />
<glyph unicode="&#x2003;" horiz-adv-x="800" />
<glyph unicode="&#x2004;" horiz-adv-x="266" />
<glyph unicode="&#x2005;" horiz-adv-x="200" />
<glyph unicode="&#x2006;" horiz-adv-x="133" />
<glyph unicode="&#x2007;" horiz-adv-x="133" />
<glyph unicode="&#x2008;" horiz-adv-x="100" />
<glyph unicode="&#x2009;" horiz-adv-x="160" />
<glyph unicode="&#x200a;" horiz-adv-x="44" />
<glyph unicode="&#x2010;" horiz-adv-x="330" d="M48 215v103h233v-103h-233z" />
<glyph unicode="&#x2011;" horiz-adv-x="330" d="M48 215v103h233v-103h-233z" />
<glyph unicode="&#x2013;" d="M0 231v70h500v-70h-500z" />
<glyph unicode="&#x2014;" horiz-adv-x="1000" d="M0 301h1000v-70h-1000v70z" />
<glyph unicode="&#x2018;" horiz-adv-x="331" d="M130 228h-17q-14 0 -19 8.5t-5 28.5v103l99 148h59l-85 -152h57q14 0 19 -8.5t5 -28.5v-62q0 -26 -7 -31.5t-34 -5.5h-72z" />
<glyph unicode="&#x2019;" horiz-adv-x="331" d="M201 516h17q14 0 19 -8.5t5 -28.5v-103l-99 -148h-59l85 152h-57q-14 0 -19 8.5t-5 28.5v62q0 26 7 31.5t34 5.5h72z" />
<glyph unicode="&#x201a;" horiz-adv-x="331" d="M201 155h17q14 0 19 -8.5t5 -28.5v-103l-99 -148h-59l85 152h-57q-14 0 -19 8.5t-5 28.5v62q0 26 7 31.5t34 5.5h72z" />
<glyph unicode="&#x201c;" horiz-adv-x="579" d="M130 228h-17q-14 0 -19 8.5t-5 28.5v103l99 148h59l-85 -152h57q14 0 19 -8.5t5 -28.5v-62q0 -26 -7 -31.5t-34 -5.5h-72zM378 228h-17q-14 0 -19.5 8.5t-5.5 28.5v103l99 148h60l-85 -152h57q14 0 19 -8.5t5 -28.5v-62q0 -26 -7.5 -31.5t-34.5 -5.5h-71z" />
<glyph unicode="&#x201d;" horiz-adv-x="579" d="M201 516h17q14 0 19 -8.5t5 -28.5v-103l-99 -148h-59l85 152h-57q-14 0 -19 8.5t-5 28.5v62q0 26 7 31.5t34 5.5h72zM448 516h18q14 0 19 -8.5t5 -28.5v-103l-99 -148h-60l85 152h-56q-14 0 -19.5 8.5t-5.5 28.5v62q0 26 7.5 31.5t34.5 5.5h71z" />
<glyph unicode="&#x201e;" horiz-adv-x="579" d="M201 155h17q14 0 19 -8.5t5 -28.5v-103l-99 -148h-59l85 152h-57q-14 0 -19 8.5t-5 28.5v62q0 26 7 31.5t34 5.5h72zM448 155h18q14 0 19 -8.5t5 -28.5v-103l-99 -148h-60l85 152h-56q-14 0 -19.5 8.5t-5.5 28.5v62q0 26 7.5 31.5t34.5 5.5h71z" />
<glyph unicode="&#x2022;" horiz-adv-x="590" d="M150 372q0 60 42.5 102t102.5 42q59 0 101.5 -42t42.5 -102q0 -59 -42.5 -102t-102.5 -43t-102 42.5t-42 102.5z" />
<glyph unicode="&#x2026;" horiz-adv-x="1000" d="M202 155h18q14 0 19 -8.5t5 -28.5v-81q0 -26 -7 -31.5t-35 -5.5h-89q-14 0 -19 8.5t-5 28.5v81q0 26 7.5 31.5t34.5 5.5h71zM535 155h18q14 0 19 -8.5t5 -28.5v-81q0 -26 -7.5 -31.5t-34.5 -5.5h-89q-14 0 -19 8.5t-5 28.5v81q0 26 7 31.5t35 5.5h71zM869 155h18 q14 0 19 -8.5t5 -28.5v-81q0 -26 -7.5 -31.5t-34.5 -5.5h-89q-14 0 -19 8.5t-5 28.5v81q0 26 7 31.5t35 5.5h71z" />
<glyph unicode="&#x202f;" horiz-adv-x="160" />
<glyph unicode="&#x2039;" horiz-adv-x="331" d="M269 64h-89l-118 148l118 147h89l-114 -147z" />
<glyph unicode="&#x203a;" horiz-adv-x="331" d="M62 359h89l118 -147l-118 -148h-89l114 148z" />
<glyph unicode="&#x205f;" horiz-adv-x="200" />
<glyph unicode="&#x20ac;" horiz-adv-x="773" d="M213 424v-73h230l-29 -64h-201v-57h176l-29 -65h-147v-72h369v115l109 -25v-61q0 -71 -27 -96.5t-101 -25.5h-330q-74 0 -101 25.5t-27 96.5v43h-87l29 65h58v57h-99l29 64h70v43q0 71 27 96.5t101 25.5h330q74 0 101 -25.5t27 -96.5v-49l-109 -19v98h-369z" />
<glyph unicode="&#x2122;" horiz-adv-x="833" d="M339 712v-39h-84v-224h-53v224h-84v39h221zM470 712l74 -188l69 188h73v-263h-48v217l-81 -217h-27l-85 217v-217h-48v263h73z" />
</font>
</defs>
</svg>
